<svg xmlns="http://www.w3.org/2000/svg" viewBox="0 0 32 32">
  <path d="M0 0 C10.16209898 7.58941569 17.03341675 18.32695343 19.46875 30.84375 C21.20662654 46.97570219 18.7206631 60.52371536 8.47729492 73.42333984 C0.41035941 82.94715532 -11.12433478 89.27594948 -23.53125 90.84375 C-39.36780546 92.00550503 -52.62166166 87.92393865 -64.78125 77.65625 C-74.5368727 68.42795826 -79.83317503 57.18062933 -80.734375 43.8359375 C-80.94766587 29.65209466 -77.30637739 16.25299377 -67.47265625 5.59765625 C-47.94682727 -12.04237838 -22.10058958 -14.98775616 0 0 Z M-46.05078125 12.81640625 C-50.41476681 18.79241814 -50.22849006 25.7124846 -49.53125 32.84375 C-47.53616218 41.73204543 -42.90746999 48.46753001 -36.53125 54.84375 C-34.42304203 54.5252323 -34.42304203 54.5252323 -32.53125 53.84375 C-32.20125 52.52375 -31.87125 51.20375 -31.53125 49.84375 C-32.253125 49.34875 -32.975 48.85375 -33.71875 48.34375 C-38.64487456 43.96497261 -42.30231372 38.38785976 -42.734375 31.69921875 C-42.74984375 30.48878906 -42.7653125 29.27835938 -42.78125 28.03125 C-42.81992188 26.22720703 -42.81992188 26.22720703 -42.859375 24.38671875 C-42.43210926 19.77326605 -41.00691116 16.42871939 -37.84375 13.03125 C-33.1405305 10.61608323 -29.13483337 10.32939307 -24.21875 11.90625 C-19.79678141 15.09418084 -18.77697506 18.45875422 -17.84375 23.71875 C-17.740625 24.75 -17.6375 25.78125 -17.53125 26.84375 C-15.55125 27.17375 -13.57125 27.50375 -11.53125 27.84375 C-10.9818556 21.25101719 -11.63712759 16.31463363 -15.53125 10.84375 C-18.86356603 7.33323525 -22.79393822 4.22697365 -27.6796875 3.54296875 C-36.18460686 3.49820602 -40.69868303 6.2828294 -46.05078125 12.81640625 Z M-41.53125 28.84375 C-41.20125 30.49375 -40.87125 32.14375 -40.53125 33.84375 C-38.22125 32.85375 -35.91125 31.86375 -33.53125 30.84375 C-33.53125 30.18375 -33.53125 29.52375 -33.53125 28.84375 C-36.17125 28.84375 -38.81125 28.84375 -41.53125 28.84375 Z M-39.53125 36.84375 C-38.87125 38.49375 -38.21125 40.14375 -37.53125 41.84375 C-35.5581658 40.8789379 -33.62766611 39.90143126 -31.7421875 38.7734375 C-26.36848152 35.68641492 -21.6692333 34.78069566 -15.53125 35.84375 C-10.42412404 37.56813879 -6.59321481 39.70593056 -2.90625 43.65625 C-1.08457286 47.87922883 -1.02152914 50.25626227 -1.53125 54.84375 C-3.20624348 58.696235 -4.66825904 60.31210797 -8.53125 61.84375 C-14.44675776 62.45138524 -20.01846247 62.22765812 -25.53125 59.84375 C-27.01625 62.31875 -27.01625 62.31875 -28.53125 64.84375 C-21.59241612 69.19752812 -15.63888744 69.69160751 -7.53125 68.84375 C-2.07469825 67.15717946 1.25816766 63.4452361 4.46875 58.84375 C6.34779976 53.20660071 6.37018313 47.11150589 4.03125 41.59375 C0.55432071 35.45945333 -6.07710466 32.1258232 -12.53125 29.84375 C-23.02271538 27.49859891 -31.30610219 30.22787024 -39.53125 36.84375 Z M-61.53125 36.84375 C-65.66122828 41.09658804 -66.8608444 45.0878836 -67.09375 50.96875 C-66.81814672 56.89049613 -65.35582038 60.14455219 -61.03515625 64.2734375 C-55.79735053 68.89733582 -51.49072194 69.26128589 -44.734375 69.1796875 C-37.71212936 68.44320808 -32.41617638 65.13812906 -27.59375 60.09375 C-23.15299264 54.49818576 -21.11746713 49.00241962 -21.71875 41.84375 C-21.94337753 39.65457574 -21.94337753 39.65457574 -22.53125 37.84375 C-23.19125 37.51375 -23.85125 37.18375 -24.53125 36.84375 C-25.52125 37.17375 -26.51125 37.50375 -27.53125 37.84375 C-27.56863281 38.56820312 -27.60601562 39.29265625 -27.64453125 40.0390625 C-28.13324166 47.22598024 -28.81678478 52.65541675 -34.46875 57.59375 C-40.2463808 61.83853998 -44.41852424 62.57297267 -51.53125 61.84375 C-54.79478691 60.6782011 -56.72396793 59.83450527 -58.90625 57.15625 C-60.30165702 51.99324401 -60.2748278 48.27582576 -57.84375 43.59375 C-55.59864829 40.92389932 -53.35355104 38.88207853 -50.53125 36.84375 C-50.86125 34.86375 -51.19125 32.88375 -51.53125 30.84375 C-54.93928069 30.84375 -58.99258123 34.83522768 -61.53125 36.84375 Z M-19.53125 36.84375 C-20.48149979 40.53916586 -20.48149979 43.14833414 -19.53125 46.84375 C-16.45035327 44.07094294 -14.84349548 41.78048644 -13.53125 37.84375 C-16.50125 37.34875 -16.50125 37.34875 -19.53125 36.84375 Z" 
        fill="#a4c639" 
        transform="translate(20, 7) scale(0.25)"/>
</svg>
